   <svg
                    width="fill"
                    height="fill"
                    viewBox="0 0 3647 882"
                    fill="none"
                    xmlns="http://www.w3.org/2000/svg"
                >
                    <path
                        d="M585.997 342.176H451.464L572.44 179.701C574.944 176.26 572.685 171.262 568.593 171.262H334.396C332.686 171.262 331.038 172.236 330.183 173.859L171.955 464.34C170.062 467.78 172.382 472.13 176.169 472.13H282.672L228.077 704.255C226.916 709.318 232.657 712.888 236.199 709.253L589.356 351.069C592.532 347.888 590.394 342.176 585.997 342.176Z"
                        fill="url(#paint0_linear_2610_5161)"
                    ></path>
                    <path
                        d="M693.631 647.224V233.555H765.204V647.224H693.631Z"
                        fill="black"
                    ></path>
                    <path
                        d="M1069.97 647.221V459.189C1069.97 418.854 1051.47 398.534 1014.77 398.534C1002.94 398.534 991.72 401.87 980.802 408.239C970.187 414.759 960.937 423.099 952.9 433.108C944.712 443.267 938.343 454.64 933.491 467.075C928.638 479.206 926.212 491.033 926.212 502.255V647.221H859.491V356.682H917.72L919.54 439.78C934.097 407.936 951.232 385.038 971.097 371.239C991.265 357.137 1014.16 350.01 1039.64 350.01C1055.41 350.01 1069.06 352.739 1080.88 357.895C1093.01 362.747 1103.02 369.874 1111.21 379.124C1119.7 388.071 1125.92 398.989 1130.01 411.878C1134.41 424.919 1136.69 438.87 1136.69 453.73V647.221H1069.97Z"
                        fill="black"
                    ></path>
                    <path
                        d="M1315.62 405.211V647.226H1248.9V405.211H1197.95V356.687H1248.9V342.736C1248.9 309.224 1257.7 282.081 1275.59 261.458C1293.79 240.532 1322.45 229.917 1361.72 229.917H1385.38V280.868H1365.97C1346.86 280.868 1333.52 285.569 1325.93 294.818C1318.2 304.22 1314.41 318.171 1314.41 336.671V356.687H1381.74V405.211H1315.62Z"
                        fill="black"
                    ></path>
                    <path
                        d="M1438.89 647.224V233.555H1503.79V647.224H1438.89Z"
                        fill="black"
                    ></path>
                    <path
                        d="M1812.45 647.23L1810.02 572.624C1796.68 600.223 1780.45 620.391 1761.5 633.28C1742.84 645.866 1720.55 652.083 1694.78 652.083C1661.11 652.083 1635.64 642.833 1618.35 624.181C1601.37 605.682 1592.87 580.813 1592.87 549.575V356.691H1659.6V542.903C1659.6 562.768 1664.6 577.78 1674.76 587.788C1684.77 597.948 1699.63 602.952 1719.04 602.952C1730.26 602.952 1741.02 600.223 1751.18 594.46C1761.65 588.395 1770.75 580.813 1778.48 571.411C1786.06 562.161 1792.13 551.698 1796.68 539.871C1801.53 528.194 1803.95 516.67 1803.95 505.297V356.691H1870.07V647.23H1812.45Z"
                        fill="black"
                    ></path>
                    <path
                        d="M2006.46 507.714V535.615C2006.46 555.025 2013.43 571.25 2027.69 584.139C2042.25 596.725 2061.81 602.943 2086.52 602.943C2105.48 602.943 2121.25 597.787 2133.84 587.172C2146.27 576.254 2155.67 562.91 2161.74 547.14L2215.11 565.943C2190.85 623.414 2146.72 652.073 2082.88 652.073C2061.81 652.073 2042.55 649.041 2025.26 642.975C2007.82 636.91 1992.81 628.418 1980.38 617.5C1968.25 606.582 1958.54 593.541 1951.26 578.074C1944.29 562.303 1940.95 544.713 1940.95 525.304V478.599C1940.95 460.402 1944.14 443.722 1950.66 428.255C1957.02 412.485 1966.12 398.837 1977.95 387.01C1989.63 375.333 2004.03 366.235 2021.02 359.715C2038.3 353.346 2058.17 350.01 2080.46 350.01C2101.84 350.01 2121.1 353.346 2138.08 359.715C2155.37 365.78 2169.77 374.727 2181.15 386.403C2192.82 398.231 2201.77 411.878 2207.83 427.649C2214.2 443.419 2217.54 461.009 2217.54 480.419V507.714H2006.46ZM2154.46 461.009C2154.46 452.972 2152.64 445.087 2149 437.353C2145.66 429.772 2140.81 423.251 2134.44 417.944C2127.92 412.333 2120.19 407.632 2111.39 403.993C2102.45 400.354 2092.59 398.534 2081.67 398.534C2058.17 398.534 2039.82 404.6 2026.48 416.731C2013.13 428.862 2006.46 443.722 2006.46 461.009V473.14H2154.46V461.009Z"
                        fill="black"
                    ></path>
                    <path
                        d="M2500.05 647.221V459.189C2500.05 418.854 2481.55 398.534 2444.86 398.534C2433.03 398.534 2421.81 401.87 2410.89 408.239C2400.28 414.759 2391.03 423.099 2382.99 433.108C2374.8 443.267 2368.43 454.64 2363.58 467.075C2358.73 479.206 2356.3 491.033 2356.3 502.255V647.221H2289.58V356.682H2347.81L2349.63 439.78C2364.19 407.936 2381.32 385.038 2401.19 371.239C2421.35 357.137 2444.25 350.01 2469.73 350.01C2485.5 350.01 2499.14 352.739 2510.97 357.895C2523.1 362.747 2533.11 369.874 2541.3 379.124C2549.79 388.071 2556.01 398.989 2560.1 411.878C2564.5 424.919 2566.77 438.87 2566.77 453.73V647.221H2500.05Z"
                        fill="black"
                    ></path>
                    <path
                        d="M2715.36 596.887H2890.05V647.23H2632.87V612.05L2812.41 407.035H2638.33V356.691H2894.3V391.872L2715.36 596.887Z"
                        fill="black"
                    ></path>
                    <path
                        d="M3014.31 507.714V535.615C3014.31 555.025 3021.29 571.25 3035.54 584.139C3050.1 596.725 3069.66 602.943 3094.38 602.943C3113.33 602.943 3129.1 597.787 3141.69 587.172C3154.12 576.254 3163.53 562.91 3169.59 547.14L3222.97 565.943C3198.71 623.414 3154.58 652.073 3090.74 652.073C3069.66 652.073 3050.4 649.041 3033.12 642.975C3015.68 636.91 3000.67 628.418 2988.23 617.5C2976.1 606.582 2966.4 593.541 2959.12 578.074C2952.14 562.303 2948.81 544.713 2948.81 525.304V478.599C2948.81 460.402 2951.99 443.722 2958.51 428.255C2964.88 412.485 2973.98 398.837 2985.81 387.01C2997.48 375.333 3011.89 366.235 3028.87 359.715C3046.16 353.346 3066.02 350.01 3088.31 350.01C3109.69 350.01 3128.95 353.346 3145.94 359.715C3163.22 365.78 3177.63 374.727 3189 386.403C3200.68 398.231 3209.62 411.878 3215.69 427.649C3222.06 443.419 3225.39 461.009 3225.39 480.419V507.714H3014.31ZM3162.31 461.009C3162.31 452.972 3160.49 445.087 3156.85 437.353C3153.52 429.772 3148.66 423.251 3142.3 417.944C3135.78 412.333 3128.04 407.632 3119.25 403.993C3110.3 400.354 3100.44 398.534 3089.53 398.534C3066.02 398.534 3047.67 404.6 3034.33 416.731C3020.99 428.862 3014.31 443.722 3014.31 461.009V473.14H3162.31V461.009Z"
                        fill="black"
                    ></path>
                    <path
                        d="M3475.71 414.909C3456.3 411.725 3439.47 410.967 3425.37 412.483C3411.11 413.696 3399.44 417.032 3390.19 422.188C3381.24 427.04 3374.57 433.409 3370.17 440.991C3365.62 448.27 3363.5 456.61 3363.5 465.86V647.219H3297.38V356.68H3355.01L3357.43 423.401C3363.04 408.085 3369.56 395.499 3376.84 385.795C3384.12 376.09 3392.31 368.811 3401.71 363.959C3411.42 358.803 3422.33 355.467 3434.47 354.254C3446.6 353.041 3460.24 353.344 3475.71 354.86V414.909Z"
                        fill="black"
                    ></path>
                    <defs>
                        <linearGradient
                            id="paint0_linear_2610_5161"
                            x1="2100.69"
                            y1="148.464"
                            x2="2100.69"
                            y2="718.333"
                            gradientUnits="userSpaceOnUse"
                        >
                            <stop stop-color="#676767"></stop>
                            <stop offset="1" stop-color="#202020"></stop>
                        </linearGradient>
                    </defs>
                </svg>