<?xml version="1.0" encoding="UTF-8"?>
<svg version="1.1" xmlns="http://www.w3.org/2000/svg" width="723" height="723">
<path d="M0 0 C0.77393406 0.01834353 1.54786811 0.03668706 2.34525472 0.05558646 C3.17707684 0.04748879 4.00889896 0.03939111 4.86592782 0.03104806 C7.65208862 0.01249825 10.43541621 0.04395974 13.22142965 0.0752703 C15.21890324 0.07233347 17.21637435 0.06635835 19.21383077 0.0575701 C24.63743608 0.04273747 30.06002324 0.07158447 35.48348767 0.10900319 C41.15334519 0.14158581 46.82317849 0.13691115 52.49311239 0.13694632 C62.01193887 0.14251221 71.53037387 0.1748494 81.04906636 0.22468436 C92.06629033 0.28219363 103.08314096 0.30499884 114.10050631 0.30756855 C125.81658649 0.31048859 137.53252854 0.33628847 149.2485562 0.37013543 C152.63149573 0.37850904 156.01442148 0.3828457 159.39736921 0.38640845 C164.70388839 0.39329506 170.01012479 0.41564623 175.31653386 0.45017874 C177.26848413 0.4605718 179.22046909 0.46584151 181.17244703 0.46573126 C183.82767839 0.4664939 186.48213989 0.48560602 189.13724691 0.50968802 C189.91787313 0.50572433 190.69849935 0.50176065 191.50278091 0.49767685 C193.64832002 0.52885878 193.64832002 0.52885878 197.05077535 0.91755545 C199.05077535 3.91755545 199.05077535 3.91755545 198.85131246 6.35920584 C198.00214437 9.07296991 197.02413843 10.65206194 195.2421816 12.8511492 C194.66548726 13.5747161 194.08879293 14.29828299 193.49462301 15.04377615 C192.87377828 15.80649832 192.25293355 16.56922049 191.61327535 17.35505545 C190.31813009 18.98092822 189.02517397 20.60854715 187.7343691 22.23786795 C187.09998922 23.03740897 186.46560933 23.83694998 185.81200582 24.66071951 C183.08795259 28.15131391 180.55725056 31.76013108 178.01513082 35.38508475 C174.22405972 40.74956431 170.23620183 45.95615728 166.23827535 51.16755545 C161.24218971 57.68274481 156.32470096 64.23779506 151.55077535 70.91755545 C146.20010239 78.40033245 140.66070926 85.72417716 135.06688863 93.02644217 C128.87905807 101.11411037 122.83047017 109.29879009 116.8124941 117.51325858 C113.68853568 121.77666524 110.55764185 126.03495648 107.42577535 130.29255545 C106.84553609 131.08355643 106.26529683 131.8745574 105.66747457 132.68952811 C105.1210732 133.43251151 104.57467183 134.1754949 104.01171285 134.94099295 C103.53524312 135.58987479 103.0587734 136.23875662 102.56786519 136.90730155 C100.7754298 139.28240824 98.91290571 141.59684988 97.05077535 143.91755545 C97.63645725 143.9208656 98.22213914 143.92417574 98.82556897 143.9275862 C113.06326921 144.00873539 127.30086363 144.10080105 141.53841382 144.20508254 C148.42353377 144.25524743 155.30864157 144.30168977 162.19384176 144.33943045 C168.83339641 144.37583502 175.47282635 144.42253158 182.11227208 144.47561896 C184.65048486 144.49420957 187.18872568 144.50930009 189.72698003 144.52089942 C193.27108418 144.53768215 196.81488621 144.56669767 200.35888082 144.5987078 C201.41767446 144.60086798 202.4764681 144.60302817 203.56734639 144.60525382 C204.52930928 144.6164173 205.49127218 144.62758078 206.48238546 144.63908255 C207.32121707 144.64461331 208.16004869 144.65014407 209.02429944 144.65584242 C211.05077535 144.91755545 211.05077535 144.91755545 213.05077535 146.91755545 C213.51729631 150.04099342 213.36378549 151.45443251 211.5810793 154.09208548 C210.52024633 155.20427954 210.52024633 155.20427954 209.43798238 156.33894217 C208.61074666 157.21242301 207.78351094 158.08590384 206.93120748 158.98585379 C205.97296609 159.96495343 205.01272025 160.9420942 204.05077535 161.91755545 C203.54037458 162.4386917 203.0299738 162.95982794 202.50410634 163.4967562 C198.97243231 167.09497156 195.40765337 170.65901193 191.83101445 174.21248114 C189.80961569 176.2209212 187.79152852 178.2326393 185.77419454 180.24516165 C181.49422002 184.51380671 177.21029993 188.77847804 172.92577535 193.04255545 C167.94790217 197.99671517 162.97172149 202.95255132 157.99975377 207.91263831 C156.02385972 209.88211209 154.04495 211.84851967 152.06588155 213.81480277 C145.12128681 220.67277115 145.12128681 220.67277115 138.56884176 227.89948905 C133.67617884 233.64825166 128.20807036 238.86924782 122.85727865 244.18621695 C120.79406222 246.23653118 118.73410723 248.29007411 116.67492086 250.34443533 C111.56280086 255.44327011 106.44522426 260.53661678 101.32781392 265.6301409 C96.99283589 269.94530762 92.65996693 274.26257171 88.32981282 278.58257926 C86.31181816 280.59414732 84.29080876 282.6026514 82.26964742 284.6110369 C75.21114995 291.57709149 75.21114995 291.57709149 68.55077535 298.91755545 C63.66586943 304.66152183 58.20187913 309.87539992 52.85727865 315.18621695 C50.79406222 317.23653118 48.73410723 319.29007411 46.67492086 321.34443533 C41.56280086 326.44327011 36.44522426 331.53661678 31.32781392 336.6301409 C26.99283589 340.94530762 22.65996693 345.26257171 18.32981282 349.58257926 C16.31181816 351.59414732 14.29080876 353.6026514 12.26964742 355.6110369 C5.21748017 362.56982164 5.21748017 362.56982164 -1.43555278 369.90388358 C-6.38076298 375.71862368 -11.91771679 380.9948529 -17.32791728 386.37141287 C-19.42473681 388.45533378 -21.51829832 390.54248054 -23.61108989 392.63044608 C-28.80668658 397.81275536 -34.00773889 402.98957806 -39.20862406 408.16657889 C-43.61406087 412.55220686 -48.0173905 416.93993052 -52.41800517 421.33039725 C-54.46923914 423.37520308 -56.52348756 425.41694609 -58.57788676 427.45857108 C-66.8631669 435.69459361 -66.8631669 435.69459361 -74.65889567 444.39083731 C-76.71322585 446.82152219 -78.90764451 449.08344914 -81.13672465 451.35505545 C-81.95527934 452.19939139 -82.77383403 453.04372733 -83.6171934 453.9136492 C-85.86830991 455.8480257 -87.01570215 456.71825031 -89.94922465 456.91755545 C-92.19922465 455.48005545 -92.19922465 455.48005545 -93.94922465 453.91755545 C-93.28940731 447.67774777 -92.08115823 441.71086768 -90.62695903 435.61115897 C-90.39046201 434.60425261 -90.15396498 433.59734625 -89.91030139 432.55992758 C-89.12510362 429.22117085 -88.33402132 425.88383706 -87.54297465 422.5464617 C-86.98443122 420.17614578 -86.42628324 417.80573664 -85.86850566 415.43524039 C-84.52883912 409.7455283 -83.18554817 404.05668127 -81.84064418 398.36820513 C-80.14014766 391.17460815 -78.44511899 383.97972503 -76.75049418 376.78474295 C-76.44178724 375.47411392 -76.13307969 374.16348502 -75.82437152 372.85285628 C-75.36173813 370.88872172 -74.8991124 368.92458536 -74.43651611 366.96044207 C-73.51192331 363.03484781 -72.58686802 359.10936289 -71.66145116 355.18396282 C-67.8891344 339.18225689 -64.13304 323.17693183 -60.41016215 307.1636492 C-60.20666903 306.2884771 -60.00317591 305.413305 -59.79351634 304.51161253 C-57.93438178 296.51426628 -56.07855368 288.51615615 -54.22535342 280.51743281 C-53.5734152 277.70468853 -52.92044967 274.89218339 -52.26726741 272.07972777 C-51.8320376 270.20365934 -51.3984586 268.32720818 -50.9649412 266.45074332 C-50.71080455 265.35633429 -50.45666789 264.26192526 -50.19483012 263.13435233 C-49.97648509 262.19104056 -49.75814006 261.24772879 -49.53317851 260.27583182 C-48.94922465 257.91755545 -48.94922465 257.91755545 -47.94922465 254.91755545 C-78.30922465 254.91755545 -108.66922465 254.91755545 -139.94922465 254.91755545 C-141.94922465 249.91755545 -141.94922465 249.91755545 -140.8515684 246.7730242 C-140.2156748 245.54035052 -139.55887276 244.31834107 -138.88672465 243.10505545 C-138.52602885 242.42128836 -138.16533305 241.73752127 -137.79370707 241.03303397 C-136.53002832 238.65125435 -135.23923461 236.28516777 -133.94922465 233.91755545 C-132.95581549 232.05883286 -131.96368524 230.19942633 -130.97266215 228.33943045 C-125.68223599 218.45475141 -120.25534503 208.65505032 -114.69922465 198.91755545 C-108.63965959 188.29052579 -102.90141444 177.5049914 -97.18555278 166.69099295 C-96.46490458 165.32768266 -95.74420209 163.96440108 -95.0234434 162.6011492 C-94.67232493 161.93703024 -94.32120646 161.27291129 -93.95944804 160.58866751 C-89.98769176 153.08604682 -85.9172123 145.63836293 -81.8359434 138.1948992 C-79.80301217 134.48655945 -77.78688643 130.76963795 -75.7812559 127.0464617 C-70.5181672 117.27847235 -65.20184699 107.55289865 -59.69922465 97.91755545 C-54.03959264 87.99867533 -48.67789657 77.93661513 -43.35184306 67.83653128 C-38.2507748 58.16854027 -33.00766485 48.60389265 -27.56836528 39.12068045 C-23.14839753 31.3759582 -19.01758424 23.49528632 -14.99292582 15.53840506 C-14.53506694 14.64258719 -14.07720805 13.74676932 -13.60547465 12.82380545 C-13.21166606 12.04327811 -12.81785746 11.26275076 -12.41211528 10.45857108 C-11.92936137 9.62003592 -11.44660746 8.78150076 -10.94922465 7.91755545 C-10.63737214 7.34035494 -10.32551962 6.76315443 -10.00421703 6.16846299 C-7.32338335 1.75787793 -5.45579077 0.12032243 0 0 Z " fill="#454545" transform="translate(326.94922465085983,135.08244454860687)"/>
</svg>
